<svg xmlns="http://www.w3.org/2000/svg" width="1220" height="470" viewBox="0 0 1220 470">
<rect width="1220" height="470" fill="#F8FAFC"/>
<text x="44" y="42" font-family="Inter,Arial,sans-serif" font-size="22" font-weight="700" fill="#172033">Ampere per-MIG UUID v3 timing timeline</text>
<text x="44" y="68" font-family="Inter,Arial,sans-serif" font-size="13" font-weight="400" fill="#51606F">Active device-plugin refresh enabled. Total wall time: 20.335s; executor-only: 19.309s.</text>
<text x="44" y="127" font-family="Inter,Arial,sans-serif" font-size="13" font-weight="700" fill="#172033">planner/executor pickup</text>
<rect x="80.00" y="108" width="49.99" height="28" rx="6" fill="#D7EAFB" stroke="#85929E"/>
<text x="135.98742894447568" y="127" font-family="Inter,Arial,sans-serif" font-size="12" font-weight="400" fill="#51606F">1.025s</text>
<text x="44" y="161" font-family="Inter,Arial,sans-serif" font-size="13" font-weight="700" fill="#172033">MIG apply</text>
<rect x="130.86" y="142" width="165.26" height="28" rx="6" fill="#FAD7A0" stroke="#85929E"/>
<text x="302.1223027773877" y="161" font-family="Inter,Arial,sans-serif" font-size="12" font-weight="400" fill="#51606F">3.390s</text>
<text x="44" y="195" font-family="Inter,Arial,sans-serif" font-size="13" font-weight="700" fill="#172033">CDI refresh + active DP refresh</text>
<rect x="296.12" y="176" width="119.93" height="28" rx="6" fill="#D5F5E3" stroke="#85929E"/>
<text x="422.05362225449926" y="195" font-family="Inter,Arial,sans-serif" font-size="12" font-weight="400" fill="#51606F">2.460s</text>
<text x="44" y="229" font-family="Inter,Arial,sans-serif" font-size="13" font-weight="700" fill="#172033">resolve MIG UUIDs</text>
<rect x="416.05" y="210" width="18.12" height="28" rx="6" fill="#D6EAF8" stroke="#85929E"/>
<text x="440.1707199961902" y="229" font-family="Inter,Arial,sans-serif" font-size="12" font-weight="400" fill="#51606F">0.372s</text>
<text x="44" y="263" font-family="Inter,Arial,sans-serif" font-size="13" font-weight="700" fill="#172033">UUID resource wait-all</text>
<rect x="434.17" y="244" width="393.00" height="28" rx="6" fill="#F9E79F" stroke="#85929E"/>
<text x="833.1688201825343" y="263" font-family="Inter,Arial,sans-serif" font-size="12" font-weight="400" fill="#51606F">8.062s</text>
<text x="44" y="297" font-family="Inter,Arial,sans-serif" font-size="13" font-weight="700" fill="#172033">runtime deploy create</text>
<rect x="864.36" y="278" width="2.00" height="28" rx="6" fill="#D2B4DE" stroke="#85929E"/>
<text x="870.8393895322948" y="297" font-family="Inter,Arial,sans-serif" font-size="12" font-weight="400" fill="#51606F">0.010s</text>
<text x="44" y="331" font-family="Inter,Arial,sans-serif" font-size="13" font-weight="700" fill="#172033">runtime ready + CUDA verify</text>
<rect x="864.84" y="312" width="206.30" height="28" rx="6" fill="#AED6F1" stroke="#85929E"/>
<text x="1077.1355028544076" y="331" font-family="Inter,Arial,sans-serif" font-size="12" font-weight="400" fill="#51606F">4.232s</text>
<text x="44" y="365" font-family="Inter,Arial,sans-serif" font-size="13" font-weight="700" fill="#172033">route sync</text>
<rect x="1071.14" y="346" width="2.00" height="28" rx="6" fill="#A9DFBF" stroke="#85929E"/>
<text x="1077.252933949368" y="365" font-family="Inter,Arial,sans-serif" font-size="12" font-weight="400" fill="#51606F">0.002s</text>
<line x1="80" y1="340" x2="1120" y2="340" stroke="#314151" stroke-width="2"/>
<line x1="80.00" y1="333" x2="80.00" y2="347" stroke="#314151"/>
<text x="72.0" y="367" font-family="Inter,Arial,sans-serif" font-size="12" font-weight="400" fill="#51606F">0s</text>
<line x1="177.49" y1="333" x2="177.49" y2="347" stroke="#314151"/>
<text x="169.4936446330405" y="367" font-family="Inter,Arial,sans-serif" font-size="12" font-weight="400" fill="#51606F">2s</text>
<line x1="274.99" y1="333" x2="274.99" y2="347" stroke="#314151"/>
<text x="266.987289266081" y="367" font-family="Inter,Arial,sans-serif" font-size="12" font-weight="400" fill="#51606F">4s</text>
<line x1="372.48" y1="333" x2="372.48" y2="347" stroke="#314151"/>
<text x="364.48093389912145" y="367" font-family="Inter,Arial,sans-serif" font-size="12" font-weight="400" fill="#51606F">6s</text>
<line x1="469.97" y1="333" x2="469.97" y2="347" stroke="#314151"/>
<text x="461.97457853216196" y="367" font-family="Inter,Arial,sans-serif" font-size="12" font-weight="400" fill="#51606F">8s</text>
<line x1="567.47" y1="333" x2="567.47" y2="347" stroke="#314151"/>
<text x="559.4682231652023" y="367" font-family="Inter,Arial,sans-serif" font-size="12" font-weight="400" fill="#51606F">10s</text>
<line x1="664.96" y1="333" x2="664.96" y2="347" stroke="#314151"/>
<text x="656.9618677982429" y="367" font-family="Inter,Arial,sans-serif" font-size="12" font-weight="400" fill="#51606F">12s</text>
<line x1="762.46" y1="333" x2="762.46" y2="347" stroke="#314151"/>
<text x="754.4555124312834" y="367" font-family="Inter,Arial,sans-serif" font-size="12" font-weight="400" fill="#51606F">14s</text>
<line x1="859.95" y1="333" x2="859.95" y2="347" stroke="#314151"/>
<text x="851.9491570643239" y="367" font-family="Inter,Arial,sans-serif" font-size="12" font-weight="400" fill="#51606F">16s</text>
<line x1="957.44" y1="333" x2="957.44" y2="347" stroke="#314151"/>
<text x="949.4428016973643" y="367" font-family="Inter,Arial,sans-serif" font-size="12" font-weight="400" fill="#51606F">18s</text>
<line x1="1054.94" y1="333" x2="1054.94" y2="347" stroke="#314151"/>
<text x="1046.9364463304046" y="367" font-family="Inter,Arial,sans-serif" font-size="12" font-weight="400" fill="#51606F">20s</text>
<text x="44" y="405" font-family="Inter,Arial,sans-serif" font-size="12" font-weight="400" fill="#51606F">Active refresh succeeded, but this run shows kubelet allocatable propagation variability rather than scan-interval delay.</text>
</svg>