<svg xmlns="http://www.w3.org/2000/svg" width="1180" height="360" viewBox="0 0 1180 360">
<rect width="1180" height="360" fill="#F8FAFC"/>
<text x="40" y="42" font-family="Inter,Arial,sans-serif" font-size="22" font-weight="700" fill="#172033">Ampere final layout: per-MIG UUID resources</text>
<text x="40" y="70" font-family="Inter,Arial,sans-serif" font-size="13" font-weight="400" fill="#51606F">Logical slot identities are stable; Kubernetes requests the resolved MIG UUID resource.</text>
<text x="40" y="115" font-family="Inter,Arial,sans-serif" font-size="16" font-weight="700" fill="#172033">ampere-gpu0</text>
<rect x="90.0" y="120" width="110.0" height="70" rx="6" fill="#5DADE2" stroke="#263241"/>
<text x="100.0" y="148" font-family="Inter,Arial,sans-serif" font-size="18" font-weight="700" fill="#172033">1g</text>
<text x="100.0" y="172" font-family="Inter,Arial,sans-serif" font-size="12" font-weight="400" fill="#263241">a9aaa9b9</text>
<rect x="200.0" y="120" width="110.0" height="70" rx="6" fill="#5DADE2" stroke="#263241"/>
<text x="210.0" y="148" font-family="Inter,Arial,sans-serif" font-size="18" font-weight="700" fill="#172033">1g</text>
<text x="210.0" y="172" font-family="Inter,Arial,sans-serif" font-size="12" font-weight="400" fill="#263241">b9b3726d</text>
<rect x="310.0" y="120" width="110.0" height="70" rx="6" fill="#5DADE2" stroke="#263241"/>
<text x="320.0" y="148" font-family="Inter,Arial,sans-serif" font-size="18" font-weight="700" fill="#172033">1g</text>
<text x="320.0" y="172" font-family="Inter,Arial,sans-serif" font-size="12" font-weight="400" fill="#263241">90f23eb7</text>
<rect x="420.0" y="120" width="110.0" height="70" rx="6" fill="#5DADE2" stroke="#263241"/>
<text x="430.0" y="148" font-family="Inter,Arial,sans-serif" font-size="18" font-weight="700" fill="#172033">1g</text>
<text x="430.0" y="172" font-family="Inter,Arial,sans-serif" font-size="12" font-weight="400" fill="#263241">74220c29</text>
<rect x="530.0" y="120" width="440.0" height="70" rx="6" fill="#F5B041" stroke="#263241"/>
<text x="540.0" y="148" font-family="Inter,Arial,sans-serif" font-size="18" font-weight="700" fill="#172033">3g</text>
<text x="540.0" y="172" font-family="Inter,Arial,sans-serif" font-size="12" font-weight="400" fill="#263241">f61eae53</text>
<line x1="90.0" y1="190" x2="90.0" y2="198" stroke="#263241"/>
<text x="86.0" y="215" font-family="Inter,Arial,sans-serif" font-size="11" font-weight="400" fill="#51606F">0</text>
<line x1="200.0" y1="190" x2="200.0" y2="198" stroke="#263241"/>
<text x="196.0" y="215" font-family="Inter,Arial,sans-serif" font-size="11" font-weight="400" fill="#51606F">1</text>
<line x1="310.0" y1="190" x2="310.0" y2="198" stroke="#263241"/>
<text x="306.0" y="215" font-family="Inter,Arial,sans-serif" font-size="11" font-weight="400" fill="#51606F">2</text>
<line x1="420.0" y1="190" x2="420.0" y2="198" stroke="#263241"/>
<text x="416.0" y="215" font-family="Inter,Arial,sans-serif" font-size="11" font-weight="400" fill="#51606F">3</text>
<line x1="530.0" y1="190" x2="530.0" y2="198" stroke="#263241"/>
<text x="526.0" y="215" font-family="Inter,Arial,sans-serif" font-size="11" font-weight="400" fill="#51606F">4</text>
<line x1="640.0" y1="190" x2="640.0" y2="198" stroke="#263241"/>
<text x="636.0" y="215" font-family="Inter,Arial,sans-serif" font-size="11" font-weight="400" fill="#51606F">5</text>
<line x1="750.0" y1="190" x2="750.0" y2="198" stroke="#263241"/>
<text x="746.0" y="215" font-family="Inter,Arial,sans-serif" font-size="11" font-weight="400" fill="#51606F">6</text>
<line x1="860.0" y1="190" x2="860.0" y2="198" stroke="#263241"/>
<text x="856.0" y="215" font-family="Inter,Arial,sans-serif" font-size="11" font-weight="400" fill="#51606F">7</text>
<line x1="970.0" y1="190" x2="970.0" y2="198" stroke="#263241"/>
<text x="966.0" y="215" font-family="Inter,Arial,sans-serif" font-size="11" font-weight="400" fill="#51606F">8</text>
<text x="90" y="238" font-family="Inter,Arial,sans-serif" font-size="12" font-weight="400" fill="#51606F">placement coordinate [0,8); 3g.20gb occupies placement size 4 at [4,8)</text>
<text x="40" y="255" font-family="Inter,Arial,sans-serif" font-size="16" font-weight="700" fill="#172033">ampere-gpu1</text>
<rect x="90" y="260" width="880" height="50" rx="6" fill="#EAECEE" stroke="#9AA6B2"/>
<text x="102" y="291" font-family="Inter,Arial,sans-serif" font-size="15" font-weight="700" fill="#51606F">empty / available</text>
</svg>