<svg xmlns="http://www.w3.org/2000/svg" width="1060" height="634" viewBox="0 0 1060 634">
<style>
text { font-family: Arial, Helvetica, sans-serif; fill: #111827; }
.title { font-size: 18px; font-weight: 700; }
.subtitle { font-size: 12px; fill: #4b5563; }
.axis { stroke: #374151; stroke-width: 1; }
.grid { stroke: #e5e7eb; stroke-width: 1; }
.label { font-size: 12px; }
.tick { font-size: 11px; fill: #4b5563; }
.value { font-size: 11px; font-weight: 600; }
.caption { font-size: 11px; fill: #4b5563; }
</style>
<rect width="100%" height="100%" fill="white"/>
<text class="title" x="32" y="34">Placement planner ablation by stage</text>
<rect x="32" y="52" width="14" height="10" fill="#1f2933"/>
<text class="tick" x="52" y="62">Current</text>
<rect x="150" y="52" width="14" height="10" fill="#6b7280"/>
<text class="tick" x="170" y="62">MILP-old</text>
<rect x="268" y="52" width="14" height="10" fill="#9ca3af"/>
<text class="tick" x="288" y="62">Greedy</text>
<rect x="386" y="52" width="14" height="10" fill="#4b5563"/>
<text class="tick" x="406" y="62">SA</text>
<text class="subtitle" x="32" y="106">Placement algorithm time</text>
<line class="grid" x1="82" y1="295.0" x2="1010" y2="295.0"/>
<text class="tick" x="74" y="299.0" text-anchor="end">0.00s</text>
<line class="grid" x1="82" y1="250.2" x2="1010" y2="250.2"/>
<text class="tick" x="74" y="254.2" text-anchor="end">7.58s</text>
<line class="grid" x1="82" y1="205.5" x2="1010" y2="205.5"/>
<text class="tick" x="74" y="209.5" text-anchor="end">15.2s</text>
<line class="grid" x1="82" y1="160.8" x2="1010" y2="160.8"/>
<text class="tick" x="74" y="164.8" text-anchor="end">22.7s</text>
<line class="grid" x1="82" y1="116.0" x2="1010" y2="116.0"/>
<text class="tick" x="74" y="120.0" text-anchor="end">30.3s</text>
<line class="axis" x1="82" y1="116" x2="82" y2="295"/>
<line class="axis" x1="82" y1="295" x2="1010" y2="295"/>
<text class="label" x="163.6" y="319" text-anchor="middle">round2_stage0_bootstrap_balanced</text>
<rect x="82.0" y="294.4" width="38.5" height="0.6" fill="#1f2933"/>
<rect x="123.5" y="294.1" width="38.5" height="0.9" fill="#6b7280"/>
<rect x="165.1" y="270.9" width="38.5" height="24.1" fill="#9ca3af"/>
<rect x="206.6" y="233.7" width="38.5" height="61.3" fill="#4b5563"/>
<text class="label" x="354.8" y="319" text-anchor="middle">round2_stage1_llm_spike</text>
<rect x="273.2" y="294.6" width="38.5" height="0.4" fill="#1f2933"/>
<rect x="314.8" y="294.2" width="38.5" height="0.8" fill="#6b7280"/>
<rect x="356.3" y="116.0" width="38.5" height="179.0" fill="#9ca3af"/>
<rect x="397.8" y="201.6" width="38.5" height="93.4" fill="#4b5563"/>
<text class="label" x="546.0" y="319" text-anchor="middle">round2_stage2_vision_shift</text>
<rect x="464.4" y="294.7" width="38.5" height="0.3" fill="#1f2933"/>
<rect x="505.9" y="290.2" width="38.5" height="4.8" fill="#6b7280"/>
<rect x="547.5" y="124.3" width="38.5" height="170.7" fill="#9ca3af"/>
<rect x="589.0" y="188.8" width="38.5" height="106.2" fill="#4b5563"/>
<text class="label" x="737.2" y="319" text-anchor="middle">round2_stage3_scale_down</text>
<rect x="655.6" y="294.6" width="38.5" height="0.4" fill="#1f2933"/>
<rect x="697.1" y="294.6" width="38.5" height="0.4" fill="#6b7280"/>
<rect x="738.7" y="280.1" width="38.5" height="14.9" fill="#9ca3af"/>
<rect x="780.2" y="234.2" width="38.5" height="60.8" fill="#4b5563"/>
<text class="label" x="928.4" y="319" text-anchor="middle">round2_stage4_mixed_rebound</text>
<rect x="846.8" y="294.7" width="38.5" height="0.3" fill="#1f2933"/>
<rect x="888.3" y="293.7" width="38.5" height="1.3" fill="#6b7280"/>
<rect x="929.9" y="137.8" width="38.5" height="157.2" fill="#9ca3af"/>
<rect x="971.4" y="197.1" width="38.5" height="97.9" fill="#4b5563"/>
<text class="subtitle" x="32" y="351">Selected GPU count</text>
<line class="grid" x1="82" y1="540.0" x2="1010" y2="540.0"/>
<text class="tick" x="74" y="544.0" text-anchor="end">0.00</text>
<line class="grid" x1="82" y1="495.2" x2="1010" y2="495.2"/>
<text class="tick" x="74" y="499.2" text-anchor="end">4.50</text>
<line class="grid" x1="82" y1="450.5" x2="1010" y2="450.5"/>
<text class="tick" x="74" y="454.5" text-anchor="end">9.00</text>
<line class="grid" x1="82" y1="405.8" x2="1010" y2="405.8"/>
<text class="tick" x="74" y="409.8" text-anchor="end">13.5</text>
<line class="grid" x1="82" y1="361.0" x2="1010" y2="361.0"/>
<text class="tick" x="74" y="365.0" text-anchor="end">18.0</text>
<line class="axis" x1="82" y1="361" x2="82" y2="540"/>
<line class="axis" x1="82" y1="540" x2="1010" y2="540"/>
<text class="label" x="163.6" y="564" text-anchor="middle">round2_stage0_bootstrap_balanced</text>
<rect x="82.0" y="500.2" width="38.5" height="39.8" fill="#1f2933"/>
<rect x="123.5" y="500.2" width="38.5" height="39.8" fill="#6b7280"/>
<rect x="165.1" y="500.2" width="38.5" height="39.8" fill="#9ca3af"/>
<rect x="206.6" y="500.2" width="38.5" height="39.8" fill="#4b5563"/>
<text class="label" x="354.8" y="564" text-anchor="middle">round2_stage1_llm_spike</text>
<rect x="273.2" y="420.7" width="38.5" height="119.3" fill="#1f2933"/>
<rect x="314.8" y="420.7" width="38.5" height="119.3" fill="#6b7280"/>
<rect x="356.3" y="361.0" width="38.5" height="179.0" fill="#9ca3af"/>
<rect x="397.8" y="400.8" width="38.5" height="139.2" fill="#4b5563"/>
<text class="label" x="546.0" y="564" text-anchor="middle">round2_stage2_vision_shift</text>
<rect x="464.4" y="470.4" width="38.5" height="69.6" fill="#1f2933"/>
<rect x="505.9" y="470.4" width="38.5" height="69.6" fill="#6b7280"/>
<rect x="547.5" y="420.7" width="38.5" height="119.3" fill="#9ca3af"/>
<rect x="589.0" y="460.4" width="38.5" height="79.6" fill="#4b5563"/>
<text class="label" x="737.2" y="564" text-anchor="middle">round2_stage3_scale_down</text>
<rect x="655.6" y="500.2" width="38.5" height="39.8" fill="#1f2933"/>
<rect x="697.1" y="500.2" width="38.5" height="39.8" fill="#6b7280"/>
<rect x="738.7" y="500.2" width="38.5" height="39.8" fill="#9ca3af"/>
<rect x="780.2" y="500.2" width="38.5" height="39.8" fill="#4b5563"/>
<text class="label" x="928.4" y="564" text-anchor="middle">round2_stage4_mixed_rebound</text>
<rect x="846.8" y="450.5" width="38.5" height="89.5" fill="#1f2933"/>
<rect x="888.3" y="450.5" width="38.5" height="89.5" fill="#6b7280"/>
<rect x="929.9" y="390.8" width="38.5" height="149.2" fill="#9ca3af"/>
<rect x="971.4" y="430.6" width="38.5" height="109.4" fill="#4b5563"/>
<text class="caption" x="32" y="616">First-stage placement is evaluated by computation time and the number of GPUs selected in each workload stage.</text>
</svg>