<svg xmlns="http://www.w3.org/2000/svg" width="1060" height="879" viewBox="0 0 1060 879">
<style>
text { font-family: Arial, Helvetica, sans-serif; fill: #111827; }
.title { font-size: 18px; font-weight: 700; }
.subtitle { font-size: 12px; fill: #4b5563; }
.axis { stroke: #374151; stroke-width: 1; }
.grid { stroke: #e5e7eb; stroke-width: 1; }
.label { font-size: 12px; }
.tick { font-size: 11px; fill: #4b5563; }
.value { font-size: 11px; font-weight: 600; }
.caption { font-size: 11px; fill: #4b5563; }
</style>
<rect width="100%" height="100%" fill="white"/>
<text class="title" x="32" y="34">Target materialization ablation by stage</text>
<rect x="32" y="52" width="14" height="10" fill="#1f2933"/>
<text class="tick" x="52" y="62">Current</text>
<rect x="150" y="52" width="14" height="10" fill="#9ca3af"/>
<text class="tick" x="170" y="62">No-preserve</text>
<rect x="268" y="52" width="14" height="10" fill="#6b7280"/>
<text class="tick" x="288" y="62">Beam</text>
<rect x="386" y="52" width="14" height="10" fill="#4b5563"/>
<text class="tick" x="406" y="62">Exact-template</text>
<text class="subtitle" x="32" y="106">Target-builder algorithm time</text>
<line class="grid" x1="82" y1="295.0" x2="1010" y2="295.0"/>
<text class="tick" x="74" y="299.0" text-anchor="end">0.00s</text>
<line class="grid" x1="82" y1="250.2" x2="1010" y2="250.2"/>
<text class="tick" x="74" y="254.2" text-anchor="end">140s</text>
<line class="grid" x1="82" y1="205.5" x2="1010" y2="205.5"/>
<text class="tick" x="74" y="209.5" text-anchor="end">279s</text>
<line class="grid" x1="82" y1="160.8" x2="1010" y2="160.8"/>
<text class="tick" x="74" y="164.8" text-anchor="end">419s</text>
<line class="grid" x1="82" y1="116.0" x2="1010" y2="116.0"/>
<text class="tick" x="74" y="120.0" text-anchor="end">558s</text>
<line class="axis" x1="82" y1="116" x2="82" y2="295"/>
<line class="axis" x1="82" y1="295" x2="1010" y2="295"/>
<text class="label" x="163.6" y="319" text-anchor="middle">round2_stage0_bootstrap_balanced</text>
<rect x="82.0" y="294.7" width="38.5" height="0.3" fill="#1f2933"/>
<rect x="123.5" y="294.8" width="38.5" height="0.2" fill="#9ca3af"/>
<rect x="165.1" y="279.6" width="38.5" height="15.4" fill="#6b7280"/>
<rect x="206.6" y="295.0" width="38.5" height="0.0" fill="#4b5563"/>
<text class="label" x="354.8" y="319" text-anchor="middle">round2_stage1_llm_spike</text>
<rect x="273.2" y="290.5" width="38.5" height="4.5" fill="#1f2933"/>
<rect x="314.8" y="284.7" width="38.5" height="10.3" fill="#9ca3af"/>
<rect x="356.3" y="116.0" width="38.5" height="179.0" fill="#6b7280"/>
<rect x="397.8" y="295.0" width="38.5" height="0.0" fill="#4b5563"/>
<text class="label" x="546.0" y="319" text-anchor="middle">round2_stage2_vision_shift</text>
<rect x="464.4" y="294.8" width="38.5" height="0.2" fill="#1f2933"/>
<rect x="505.9" y="294.4" width="38.5" height="0.6" fill="#9ca3af"/>
<rect x="547.5" y="291.8" width="38.5" height="3.2" fill="#6b7280"/>
<rect x="589.0" y="295.0" width="38.5" height="0.0" fill="#4b5563"/>
<text class="label" x="737.2" y="319" text-anchor="middle">round2_stage3_scale_down</text>
<rect x="655.6" y="294.9" width="38.5" height="0.1" fill="#1f2933"/>
<rect x="697.1" y="294.8" width="38.5" height="0.2" fill="#9ca3af"/>
<rect x="738.7" y="290.5" width="38.5" height="4.5" fill="#6b7280"/>
<rect x="780.2" y="295.0" width="38.5" height="0.0" fill="#4b5563"/>
<text class="label" x="928.4" y="319" text-anchor="middle">round2_stage4_mixed_rebound</text>
<rect x="846.8" y="294.5" width="38.5" height="0.5" fill="#1f2933"/>
<rect x="888.3" y="294.5" width="38.5" height="0.5" fill="#9ca3af"/>
<rect x="929.9" y="277.6" width="38.5" height="17.4" fill="#6b7280"/>
<rect x="971.4" y="295.0" width="38.5" height="0.0" fill="#4b5563"/>
<text class="subtitle" x="32" y="351">Estimated reconfiguration time</text>
<line class="grid" x1="82" y1="540.0" x2="1010" y2="540.0"/>
<text class="tick" x="74" y="544.0" text-anchor="end">0.00s</text>
<line class="grid" x1="82" y1="495.2" x2="1010" y2="495.2"/>
<text class="tick" x="74" y="499.2" text-anchor="end">323s</text>
<line class="grid" x1="82" y1="450.5" x2="1010" y2="450.5"/>
<text class="tick" x="74" y="454.5" text-anchor="end">646s</text>
<line class="grid" x1="82" y1="405.8" x2="1010" y2="405.8"/>
<text class="tick" x="74" y="409.8" text-anchor="end">969s</text>
<line class="grid" x1="82" y1="361.0" x2="1010" y2="361.0"/>
<text class="tick" x="74" y="365.0" text-anchor="end">1291s</text>
<line class="axis" x1="82" y1="361" x2="82" y2="540"/>
<line class="axis" x1="82" y1="540" x2="1010" y2="540"/>
<text class="label" x="163.6" y="564" text-anchor="middle">round2_stage0_bootstrap_balanced</text>
<rect x="82.0" y="464.3" width="38.5" height="75.7" fill="#1f2933"/>
<rect x="123.5" y="464.3" width="38.5" height="75.7" fill="#9ca3af"/>
<rect x="165.1" y="464.3" width="38.5" height="75.7" fill="#6b7280"/>
<rect x="206.6" y="464.3" width="38.5" height="75.7" fill="#4b5563"/>
<text class="label" x="354.8" y="564" text-anchor="middle">round2_stage1_llm_spike</text>
<rect x="273.2" y="396.5" width="38.5" height="143.5" fill="#1f2933"/>
<rect x="314.8" y="361.0" width="38.5" height="179.0" fill="#9ca3af"/>
<rect x="356.3" y="378.4" width="38.5" height="161.6" fill="#6b7280"/>
<rect x="397.8" y="378.5" width="38.5" height="161.5" fill="#4b5563"/>
<text class="label" x="546.0" y="564" text-anchor="middle">round2_stage2_vision_shift</text>
<rect x="464.4" y="493.1" width="38.5" height="46.9" fill="#1f2933"/>
<rect x="505.9" y="422.4" width="38.5" height="117.6" fill="#9ca3af"/>
<rect x="547.5" y="491.9" width="38.5" height="48.1" fill="#6b7280"/>
<rect x="589.0" y="422.4" width="38.5" height="117.6" fill="#4b5563"/>
<text class="label" x="737.2" y="564" text-anchor="middle">round2_stage3_scale_down</text>
<rect x="655.6" y="515.1" width="38.5" height="24.9" fill="#1f2933"/>
<rect x="697.1" y="480.5" width="38.5" height="59.5" fill="#9ca3af"/>
<rect x="738.7" y="514.0" width="38.5" height="26.0" fill="#6b7280"/>
<rect x="780.2" y="463.1" width="38.5" height="76.9" fill="#4b5563"/>
<text class="label" x="928.4" y="564" text-anchor="middle">round2_stage4_mixed_rebound</text>
<rect x="846.8" y="459.6" width="38.5" height="80.4" fill="#1f2933"/>
<rect x="888.3" y="406.8" width="38.5" height="133.2" fill="#9ca3af"/>
<rect x="929.9" y="442.5" width="38.5" height="97.5" fill="#6b7280"/>
<rect x="971.4" y="390.5" width="38.5" height="149.5" fill="#4b5563"/>
<text class="subtitle" x="32" y="596">Executed fine-grained actions</text>
<line class="grid" x1="82" y1="785.0" x2="1010" y2="785.0"/>
<text class="tick" x="74" y="789.0" text-anchor="end">0.00</text>
<line class="grid" x1="82" y1="740.2" x2="1010" y2="740.2"/>
<text class="tick" x="74" y="744.2" text-anchor="end">24.2</text>
<line class="grid" x1="82" y1="695.5" x2="1010" y2="695.5"/>
<text class="tick" x="74" y="699.5" text-anchor="end">48.5</text>
<line class="grid" x1="82" y1="650.8" x2="1010" y2="650.8"/>
<text class="tick" x="74" y="654.8" text-anchor="end">72.8</text>
<line class="grid" x1="82" y1="606.0" x2="1010" y2="606.0"/>
<text class="tick" x="74" y="610.0" text-anchor="end">97.0</text>
<line class="axis" x1="82" y1="606" x2="82" y2="785"/>
<line class="axis" x1="82" y1="785" x2="1010" y2="785"/>
<text class="label" x="163.6" y="809" text-anchor="middle">round2_stage0_bootstrap_balanced</text>
<rect x="82.0" y="729.6" width="38.5" height="55.4" fill="#1f2933"/>
<rect x="123.5" y="729.6" width="38.5" height="55.4" fill="#9ca3af"/>
<rect x="165.1" y="729.6" width="38.5" height="55.4" fill="#6b7280"/>
<rect x="206.6" y="729.6" width="38.5" height="55.4" fill="#4b5563"/>
<text class="label" x="354.8" y="809" text-anchor="middle">round2_stage1_llm_spike</text>
<rect x="273.2" y="702.0" width="38.5" height="83.0" fill="#1f2933"/>
<rect x="314.8" y="666.9" width="38.5" height="118.1" fill="#9ca3af"/>
<rect x="356.3" y="676.1" width="38.5" height="108.9" fill="#6b7280"/>
<rect x="397.8" y="681.7" width="38.5" height="103.3" fill="#4b5563"/>
<text class="label" x="546.0" y="809" text-anchor="middle">round2_stage2_vision_shift</text>
<rect x="464.4" y="672.4" width="38.5" height="112.6" fill="#1f2933"/>
<rect x="505.9" y="606.0" width="38.5" height="179.0" fill="#9ca3af"/>
<rect x="547.5" y="655.8" width="38.5" height="129.2" fill="#6b7280"/>
<rect x="589.0" y="606.0" width="38.5" height="179.0" fill="#4b5563"/>
<text class="label" x="737.2" y="809" text-anchor="middle">round2_stage3_scale_down</text>
<rect x="655.6" y="718.6" width="38.5" height="66.4" fill="#1f2933"/>
<rect x="697.1" y="689.0" width="38.5" height="96.0" fill="#9ca3af"/>
<rect x="738.7" y="703.8" width="38.5" height="81.2" fill="#6b7280"/>
<rect x="780.2" y="676.1" width="38.5" height="108.9" fill="#4b5563"/>
<text class="label" x="928.4" y="809" text-anchor="middle">round2_stage4_mixed_rebound</text>
<rect x="846.8" y="722.3" width="38.5" height="62.7" fill="#1f2933"/>
<rect x="888.3" y="672.4" width="38.5" height="112.6" fill="#9ca3af"/>
<rect x="929.9" y="709.3" width="38.5" height="75.7" fill="#6b7280"/>
<rect x="971.4" y="666.9" width="38.5" height="118.1" fill="#4b5563"/>
<text class="caption" x="32" y="861">Second-stage target materialization is compared by build time and the downstream transition cost it induces.</text>
</svg>