<svg xmlns="http://www.w3.org/2000/svg" width="1060" height="879" viewBox="0 0 1060 879">
<style>
text { font-family: Arial, Helvetica, sans-serif; fill: #111827; }
.title { font-size: 18px; font-weight: 700; }
.subtitle { font-size: 12px; fill: #4b5563; }
.axis { stroke: #374151; stroke-width: 1; }
.grid { stroke: #e5e7eb; stroke-width: 1; }
.label { font-size: 12px; }
.tick { font-size: 11px; fill: #4b5563; }
.value { font-size: 11px; font-weight: 600; }
.caption { font-size: 11px; fill: #4b5563; }
</style>
<rect width="100%" height="100%" fill="white"/>
<text class="title" x="32" y="34">Transition planner ablation by stage</text>
<rect x="32" y="52" width="14" height="10" fill="#1f2933"/>
<text class="tick" x="52" y="62">Current</text>
<rect x="150" y="52" width="14" height="10" fill="#9ca3af"/>
<text class="tick" x="170" y="62">Serial</text>
<rect x="268" y="52" width="14" height="10" fill="#6b7280"/>
<text class="tick" x="288" y="62">Drain-aware</text>
<rect x="386" y="52" width="14" height="10" fill="#4b5563"/>
<text class="tick" x="406" y="62">Full-plan</text>
<text class="subtitle" x="32" y="106">Transition-planner algorithm time</text>
<line class="grid" x1="82" y1="295.0" x2="1010" y2="295.0"/>
<text class="tick" x="74" y="299.0" text-anchor="end">0.00s</text>
<line class="grid" x1="82" y1="250.2" x2="1010" y2="250.2"/>
<text class="tick" x="74" y="254.2" text-anchor="end">0.25s</text>
<line class="grid" x1="82" y1="205.5" x2="1010" y2="205.5"/>
<text class="tick" x="74" y="209.5" text-anchor="end">0.50s</text>
<line class="grid" x1="82" y1="160.8" x2="1010" y2="160.8"/>
<text class="tick" x="74" y="164.8" text-anchor="end">0.75s</text>
<line class="grid" x1="82" y1="116.0" x2="1010" y2="116.0"/>
<text class="tick" x="74" y="120.0" text-anchor="end">1.00s</text>
<line class="axis" x1="82" y1="116" x2="82" y2="295"/>
<line class="axis" x1="82" y1="295" x2="1010" y2="295"/>
<text class="label" x="163.6" y="319" text-anchor="middle">round2_stage0_bootstrap_balanced</text>
<rect x="82.0" y="294.6" width="38.5" height="0.4" fill="#1f2933"/>
<rect x="123.5" y="292.2" width="38.5" height="2.8" fill="#9ca3af"/>
<rect x="165.1" y="294.7" width="38.5" height="0.3" fill="#6b7280"/>
<rect x="206.6" y="294.7" width="38.5" height="0.3" fill="#4b5563"/>
<text class="label" x="354.8" y="319" text-anchor="middle">round2_stage1_llm_spike</text>
<rect x="273.2" y="292.5" width="38.5" height="2.5" fill="#1f2933"/>
<rect x="314.8" y="287.1" width="38.5" height="7.9" fill="#9ca3af"/>
<rect x="356.3" y="292.5" width="38.5" height="2.5" fill="#6b7280"/>
<rect x="397.8" y="292.5" width="38.5" height="2.5" fill="#4b5563"/>
<text class="label" x="546.0" y="319" text-anchor="middle">round2_stage2_vision_shift</text>
<rect x="464.4" y="291.2" width="38.5" height="3.8" fill="#1f2933"/>
<rect x="505.9" y="279.6" width="38.5" height="15.4" fill="#9ca3af"/>
<rect x="547.5" y="291.9" width="38.5" height="3.1" fill="#6b7280"/>
<rect x="589.0" y="291.6" width="38.5" height="3.4" fill="#4b5563"/>
<text class="label" x="737.2" y="319" text-anchor="middle">round2_stage3_scale_down</text>
<rect x="655.6" y="291.6" width="38.5" height="3.4" fill="#1f2933"/>
<rect x="697.1" y="287.2" width="38.5" height="7.8" fill="#9ca3af"/>
<rect x="738.7" y="291.0" width="38.5" height="4.0" fill="#6b7280"/>
<rect x="780.2" y="293.2" width="38.5" height="1.8" fill="#4b5563"/>
<text class="label" x="928.4" y="319" text-anchor="middle">round2_stage4_mixed_rebound</text>
<rect x="846.8" y="290.4" width="38.5" height="4.6" fill="#1f2933"/>
<rect x="888.3" y="286.8" width="38.5" height="8.2" fill="#9ca3af"/>
<rect x="929.9" y="289.6" width="38.5" height="5.4" fill="#6b7280"/>
<rect x="971.4" y="293.7" width="38.5" height="1.3" fill="#4b5563"/>
<text class="subtitle" x="32" y="351">Peak active physical GPUs</text>
<line class="grid" x1="82" y1="540.0" x2="1010" y2="540.0"/>
<text class="tick" x="74" y="544.0" text-anchor="end">0.00</text>
<line class="grid" x1="82" y1="495.2" x2="1010" y2="495.2"/>
<text class="tick" x="74" y="499.2" text-anchor="end">3.50</text>
<line class="grid" x1="82" y1="450.5" x2="1010" y2="450.5"/>
<text class="tick" x="74" y="454.5" text-anchor="end">7.00</text>
<line class="grid" x1="82" y1="405.8" x2="1010" y2="405.8"/>
<text class="tick" x="74" y="409.8" text-anchor="end">10.5</text>
<line class="grid" x1="82" y1="361.0" x2="1010" y2="361.0"/>
<text class="tick" x="74" y="365.0" text-anchor="end">14.0</text>
<line class="axis" x1="82" y1="361" x2="82" y2="540"/>
<line class="axis" x1="82" y1="540" x2="1010" y2="540"/>
<text class="label" x="163.6" y="564" text-anchor="middle">round2_stage0_bootstrap_balanced</text>
<rect x="82.0" y="424.9" width="38.5" height="115.1" fill="#1f2933"/>
<rect x="123.5" y="424.9" width="38.5" height="115.1" fill="#9ca3af"/>
<rect x="165.1" y="424.9" width="38.5" height="115.1" fill="#6b7280"/>
<rect x="206.6" y="424.9" width="38.5" height="115.1" fill="#4b5563"/>
<text class="label" x="354.8" y="564" text-anchor="middle">round2_stage1_llm_spike</text>
<rect x="273.2" y="373.8" width="38.5" height="166.2" fill="#1f2933"/>
<rect x="314.8" y="386.6" width="38.5" height="153.4" fill="#9ca3af"/>
<rect x="356.3" y="373.8" width="38.5" height="166.2" fill="#6b7280"/>
<rect x="397.8" y="373.8" width="38.5" height="166.2" fill="#4b5563"/>
<text class="label" x="546.0" y="564" text-anchor="middle">round2_stage2_vision_shift</text>
<rect x="464.4" y="373.8" width="38.5" height="166.2" fill="#1f2933"/>
<rect x="505.9" y="386.6" width="38.5" height="153.4" fill="#9ca3af"/>
<rect x="547.5" y="361.0" width="38.5" height="179.0" fill="#6b7280"/>
<rect x="589.0" y="373.8" width="38.5" height="166.2" fill="#4b5563"/>
<text class="label" x="737.2" y="564" text-anchor="middle">round2_stage3_scale_down</text>
<rect x="655.6" y="450.5" width="38.5" height="89.5" fill="#1f2933"/>
<rect x="697.1" y="450.5" width="38.5" height="89.5" fill="#9ca3af"/>
<rect x="738.7" y="450.5" width="38.5" height="89.5" fill="#6b7280"/>
<rect x="780.2" y="437.7" width="38.5" height="102.3" fill="#4b5563"/>
<text class="label" x="928.4" y="564" text-anchor="middle">round2_stage4_mixed_rebound</text>
<rect x="846.8" y="424.9" width="38.5" height="115.1" fill="#1f2933"/>
<rect x="888.3" y="424.9" width="38.5" height="115.1" fill="#9ca3af"/>
<rect x="929.9" y="424.9" width="38.5" height="115.1" fill="#6b7280"/>
<rect x="971.4" y="412.1" width="38.5" height="127.9" fill="#4b5563"/>
<text class="subtitle" x="32" y="596">Estimated reconfiguration time</text>
<line class="grid" x1="82" y1="785.0" x2="1010" y2="785.0"/>
<text class="tick" x="74" y="789.0" text-anchor="end">0.00s</text>
<line class="grid" x1="82" y1="740.2" x2="1010" y2="740.2"/>
<text class="tick" x="74" y="744.2" text-anchor="end">259s</text>
<line class="grid" x1="82" y1="695.5" x2="1010" y2="695.5"/>
<text class="tick" x="74" y="699.5" text-anchor="end">518s</text>
<line class="grid" x1="82" y1="650.8" x2="1010" y2="650.8"/>
<text class="tick" x="74" y="654.8" text-anchor="end">776s</text>
<line class="grid" x1="82" y1="606.0" x2="1010" y2="606.0"/>
<text class="tick" x="74" y="610.0" text-anchor="end">1035s</text>
<line class="axis" x1="82" y1="606" x2="82" y2="785"/>
<line class="axis" x1="82" y1="785" x2="1010" y2="785"/>
<text class="label" x="163.6" y="809" text-anchor="middle">round2_stage0_bootstrap_balanced</text>
<rect x="82.0" y="690.5" width="38.5" height="94.5" fill="#1f2933"/>
<rect x="123.5" y="690.5" width="38.5" height="94.5" fill="#9ca3af"/>
<rect x="165.1" y="690.5" width="38.5" height="94.5" fill="#6b7280"/>
<rect x="206.6" y="690.5" width="38.5" height="94.5" fill="#4b5563"/>
<text class="label" x="354.8" y="809" text-anchor="middle">round2_stage1_llm_spike</text>
<rect x="273.2" y="606.0" width="38.5" height="179.0" fill="#1f2933"/>
<rect x="314.8" y="606.0" width="38.5" height="179.0" fill="#9ca3af"/>
<rect x="356.3" y="606.0" width="38.5" height="179.0" fill="#6b7280"/>
<rect x="397.8" y="606.0" width="38.5" height="179.0" fill="#4b5563"/>
<text class="label" x="546.0" y="809" text-anchor="middle">round2_stage2_vision_shift</text>
<rect x="464.4" y="726.5" width="38.5" height="58.5" fill="#1f2933"/>
<rect x="505.9" y="726.5" width="38.5" height="58.5" fill="#9ca3af"/>
<rect x="547.5" y="705.5" width="38.5" height="79.5" fill="#6b7280"/>
<rect x="589.0" y="726.5" width="38.5" height="58.5" fill="#4b5563"/>
<text class="label" x="737.2" y="809" text-anchor="middle">round2_stage3_scale_down</text>
<rect x="655.6" y="753.9" width="38.5" height="31.1" fill="#1f2933"/>
<rect x="697.1" y="753.9" width="38.5" height="31.1" fill="#9ca3af"/>
<rect x="738.7" y="753.6" width="38.5" height="31.4" fill="#6b7280"/>
<rect x="780.2" y="754.3" width="38.5" height="30.7" fill="#4b5563"/>
<text class="label" x="928.4" y="809" text-anchor="middle">round2_stage4_mixed_rebound</text>
<rect x="846.8" y="684.7" width="38.5" height="100.3" fill="#1f2933"/>
<rect x="888.3" y="684.7" width="38.5" height="100.3" fill="#9ca3af"/>
<rect x="929.9" y="684.7" width="38.5" height="100.3" fill="#6b7280"/>
<rect x="971.4" y="645.5" width="38.5" height="139.5" fill="#4b5563"/>
<text class="caption" x="32" y="861">Third-stage transition planners are compared by scheduling computation, peak GPU footprint, and estimated hardware action cost.</text>
</svg>