<svg xmlns="http://www.w3.org/2000/svg" width="1000" height="430" viewBox="0 0 1000 430">
<rect width="100%" height="100%" fill="white"/>
<text x="80" y="24" font-family="sans-serif" font-size="18" fill="#222">Transition iterations</text>
<line x1="80" y1="40" x2="80" y2="310" stroke="#333"/>
<line x1="80" y1="310" x2="960" y2="310" stroke="#333"/>
<rect x="98" y="220" width="68" height="90" fill="#4C78A8"/>
<text x="132.0" y="214" text-anchor="middle" font-family="sans-serif" font-size="12" fill="#222">25.0</text>
<text transform="translate(132.0,328) rotate(35)" text-anchor="start" font-family="sans-serif" font-size="12" fill="#222">current_full</text>
<rect x="184" y="246" width="68" height="64" fill="#4C78A8"/>
<text x="218.0" y="240" text-anchor="middle" font-family="sans-serif" font-size="12" fill="#222">18.0</text>
<text transform="translate(218.0,328) rotate(35)" text-anchor="start" font-family="sans-serif" font-size="12" fill="#222">placement_greedy_two_phase</text>
<rect x="270" y="217" width="68" height="93" fill="#4C78A8"/>
<text x="304.0" y="211" text-anchor="middle" font-family="sans-serif" font-size="12" fill="#222">26.0</text>
<text transform="translate(304.0,328) rotate(35)" text-anchor="start" font-family="sans-serif" font-size="12" fill="#222">placement_milp_original</text>
<rect x="356" y="260" width="68" height="50" fill="#4C78A8"/>
<text x="390.0" y="254" text-anchor="middle" font-family="sans-serif" font-size="12" fill="#222">14.0</text>
<text transform="translate(390.0,328) rotate(35)" text-anchor="start" font-family="sans-serif" font-size="12" fill="#222">placement_simulated_annealing</text>
<rect x="442" y="192" width="68" height="118" fill="#4C78A8"/>
<text x="476.0" y="186" text-anchor="middle" font-family="sans-serif" font-size="12" fill="#222">33.0</text>
<text transform="translate(476.0,328) rotate(35)" text-anchor="start" font-family="sans-serif" font-size="12" fill="#222">target_beam_preserve</text>
<rect x="528" y="271" width="68" height="39" fill="#4C78A8"/>
<text x="562.0" y="265" text-anchor="middle" font-family="sans-serif" font-size="12" fill="#222">11.0</text>
<text transform="translate(562.0,328) rotate(35)" text-anchor="start" font-family="sans-serif" font-size="12" fill="#222">target_exact_milp_templates</text>
<rect x="614" y="256" width="68" height="54" fill="#4C78A8"/>
<text x="648.0" y="250" text-anchor="middle" font-family="sans-serif" font-size="12" fill="#222">15.0</text>
<text transform="translate(648.0,328) rotate(35)" text-anchor="start" font-family="sans-serif" font-size="12" fill="#222">target_no_preserve</text>
<rect x="700" y="217" width="68" height="93" fill="#4C78A8"/>
<text x="734.0" y="211" text-anchor="middle" font-family="sans-serif" font-size="12" fill="#222">26.0</text>
<text transform="translate(734.0,328) rotate(35)" text-anchor="start" font-family="sans-serif" font-size="12" fill="#222">transition_drain_v2</text>
<rect x="786" y="267" width="68" height="43" fill="#4C78A8"/>
<text x="820.0" y="261" text-anchor="middle" font-family="sans-serif" font-size="12" fill="#222">12.0</text>
<text transform="translate(820.0,328) rotate(35)" text-anchor="start" font-family="sans-serif" font-size="12" fill="#222">transition_full_plan_v2</text>
<rect x="872" y="40" width="68" height="270" fill="#4C78A8"/>
<text x="906.0" y="54" text-anchor="middle" font-family="sans-serif" font-size="12" fill="#222">75.0</text>
<text transform="translate(906.0,328) rotate(35)" text-anchor="start" font-family="sans-serif" font-size="12" fill="#222">transition_serial_v0</text>
</svg>