<svg xmlns="http://www.w3.org/2000/svg" width="1220" height="470" viewBox="0 0 1220 470">
<rect width="1220" height="470" fill="#F8FAFC"/>
<text x="44" y="42" font-family="Inter,Arial,sans-serif" font-size="22" font-weight="700" fill="#172033">Ampere per-MIG UUID v4 timing timeline</text>
<text x="44" y="68" font-family="Inter,Arial,sans-serif" font-size="13" font-weight="400" fill="#51606F">Two-stage UUID confirmation. Total wall time: 14.023s; executor-only: 13.107s.</text>
<text x="44" y="127" font-family="Inter,Arial,sans-serif" font-size="13" font-weight="700" fill="#172033">planner/executor pickup</text>
<rect x="80.00" y="108" width="63.41" height="28" rx="6" fill="#D7EAFB" stroke="#85929E"/>
<text x="149.41307905019787" y="127" font-family="Inter,Arial,sans-serif" font-size="12" font-weight="400" fill="#51606F">0.916s</text>
<text x="44" y="161" font-family="Inter,Arial,sans-serif" font-size="13" font-weight="700" fill="#172033">MIG apply</text>
<rect x="144.41" y="142" width="244.94" height="28" rx="6" fill="#FAD7A0" stroke="#85929E"/>
<text x="395.3473787968369" y="161" font-family="Inter,Arial,sans-serif" font-size="12" font-weight="400" fill="#51606F">3.538s</text>
<text x="44" y="195" font-family="Inter,Arial,sans-serif" font-size="13" font-weight="700" fill="#172033">CDI refresh + active DP refresh</text>
<rect x="389.35" y="176" width="164.34" height="28" rx="6" fill="#D5F5E3" stroke="#85929E"/>
<text x="559.6883706496392" y="195" font-family="Inter,Arial,sans-serif" font-size="12" font-weight="400" fill="#51606F">2.374s</text>
<text x="44" y="229" font-family="Inter,Arial,sans-serif" font-size="13" font-weight="700" fill="#172033">resolve MIG UUIDs</text>
<rect x="553.69" y="210" width="22.80" height="28" rx="6" fill="#D6EAF8" stroke="#85929E"/>
<text x="582.4914343059372" y="229" font-family="Inter,Arial,sans-serif" font-size="12" font-weight="400" fill="#51606F">0.329s</text>
<text x="44" y="263" font-family="Inter,Arial,sans-serif" font-size="13" font-weight="700" fill="#172033">short allocatable wait</text>
<rect x="576.49" y="244" width="69.96" height="28" rx="6" fill="#F9E79F" stroke="#85929E"/>
<text x="652.4527851402738" y="263" font-family="Inter,Arial,sans-serif" font-size="12" font-weight="400" fill="#51606F">1.011s</text>
<text x="44" y="297" font-family="Inter,Arial,sans-serif" font-size="13" font-weight="700" fill="#172033">runtime deploy create</text>
<rect x="688.89" y="278" width="2.00" height="28" rx="6" fill="#D2B4DE" stroke="#85929E"/>
<text x="695.4955399227603" y="297" font-family="Inter,Arial,sans-serif" font-size="12" font-weight="400" fill="#51606F">0.009s</text>
<text x="44" y="331" font-family="Inter,Arial,sans-serif" font-size="13" font-weight="700" fill="#172033">runtime ready + CUDA verify</text>
<rect x="689.50" y="312" width="361.10" height="28" rx="6" fill="#AED6F1" stroke="#85929E"/>
<text x="1056.599949383718" y="331" font-family="Inter,Arial,sans-serif" font-size="12" font-weight="400" fill="#51606F">5.216s</text>
<text x="44" y="365" font-family="Inter,Arial,sans-serif" font-size="13" font-weight="700" fill="#172033">route sync</text>
<rect x="1050.60" y="346" width="2.00" height="28" rx="6" fill="#A9DFBF" stroke="#85929E"/>
<text x="1056.7716346995514" y="365" font-family="Inter,Arial,sans-serif" font-size="12" font-weight="400" fill="#51606F">0.002s</text>
<line x1="80" y1="340" x2="1120" y2="340" stroke="#314151" stroke-width="2"/>
<line x1="80.00" y1="333" x2="80.00" y2="347" stroke="#314151"/>
<text x="72.0" y="367" font-family="Inter,Arial,sans-serif" font-size="12" font-weight="400" fill="#51606F">0s</text>
<line x1="218.46" y1="333" x2="218.46" y2="347" stroke="#314151"/>
<text x="210.45589986549808" y="367" font-family="Inter,Arial,sans-serif" font-size="12" font-weight="400" fill="#51606F">2s</text>
<line x1="356.91" y1="333" x2="356.91" y2="347" stroke="#314151"/>
<text x="348.91179973099617" y="367" font-family="Inter,Arial,sans-serif" font-size="12" font-weight="400" fill="#51606F">4s</text>
<line x1="495.37" y1="333" x2="495.37" y2="347" stroke="#314151"/>
<text x="487.3676995964942" y="367" font-family="Inter,Arial,sans-serif" font-size="12" font-weight="400" fill="#51606F">6s</text>
<line x1="633.82" y1="333" x2="633.82" y2="347" stroke="#314151"/>
<text x="625.8235994619923" y="367" font-family="Inter,Arial,sans-serif" font-size="12" font-weight="400" fill="#51606F">8s</text>
<line x1="772.28" y1="333" x2="772.28" y2="347" stroke="#314151"/>
<text x="764.2794993274904" y="367" font-family="Inter,Arial,sans-serif" font-size="12" font-weight="400" fill="#51606F">10s</text>
<line x1="910.74" y1="333" x2="910.74" y2="347" stroke="#314151"/>
<text x="902.7353991929884" y="367" font-family="Inter,Arial,sans-serif" font-size="12" font-weight="400" fill="#51606F">12s</text>
<line x1="1049.19" y1="333" x2="1049.19" y2="347" stroke="#314151"/>
<text x="1041.1912990584865" y="367" font-family="Inter,Arial,sans-serif" font-size="12" font-weight="400" fill="#51606F">14s</text>
<text x="44" y="405" font-family="Inter,Arial,sans-serif" font-size="12" font-weight="400" fill="#51606F">Node-agent registeredResources is used as the strong signal; Node allocatable wait is short and no longer dominates.</text>
</svg>