<svg xmlns="http://www.w3.org/2000/svg" width="1060" height="634" viewBox="0 0 1060 634">
<style>
text { font-family: Arial, Helvetica, sans-serif; fill: #111827; }
.title { font-size: 18px; font-weight: 700; }
.subtitle { font-size: 12px; fill: #4b5563; }
.axis { stroke: #374151; stroke-width: 1; }
.grid { stroke: #e5e7eb; stroke-width: 1; }
.label { font-size: 12px; }
.tick { font-size: 11px; fill: #4b5563; }
.value { font-size: 11px; font-weight: 600; }
.caption { font-size: 11px; fill: #4b5563; }
</style>
<rect width="100%" height="100%" fill="white"/>
<text class="title" x="32" y="34">Placement planner ablation by stage</text>
<rect x="32" y="52" width="14" height="10" fill="#1f2933"/>
<text class="tick" x="52" y="62">Current</text>
<rect x="150" y="52" width="14" height="10" fill="#6b7280"/>
<text class="tick" x="170" y="62">MILP-old</text>
<rect x="268" y="52" width="14" height="10" fill="#9ca3af"/>
<text class="tick" x="288" y="62">Greedy</text>
<rect x="386" y="52" width="14" height="10" fill="#4b5563"/>
<text class="tick" x="406" y="62">SA</text>
<text class="subtitle" x="32" y="106">Placement algorithm time</text>
<line class="grid" x1="82" y1="295.0" x2="1010" y2="295.0"/>
<text class="tick" x="74" y="299.0" text-anchor="end">0.00s</text>
<line class="grid" x1="82" y1="250.2" x2="1010" y2="250.2"/>
<text class="tick" x="74" y="254.2" text-anchor="end">6.31s</text>
<line class="grid" x1="82" y1="205.5" x2="1010" y2="205.5"/>
<text class="tick" x="74" y="209.5" text-anchor="end">12.6s</text>
<line class="grid" x1="82" y1="160.8" x2="1010" y2="160.8"/>
<text class="tick" x="74" y="164.8" text-anchor="end">18.9s</text>
<line class="grid" x1="82" y1="116.0" x2="1010" y2="116.0"/>
<text class="tick" x="74" y="120.0" text-anchor="end">25.2s</text>
<line class="axis" x1="82" y1="116" x2="82" y2="295"/>
<line class="axis" x1="82" y1="295" x2="1010" y2="295"/>
<text class="label" x="187.5" y="319" text-anchor="middle">stage0</text>
<rect x="82.0" y="294.1" width="50.5" height="0.9" fill="#1f2933"/>
<rect x="135.5" y="294.7" width="50.5" height="0.3" fill="#6b7280"/>
<rect x="189.0" y="219.2" width="50.5" height="75.8" fill="#9ca3af"/>
<rect x="242.5" y="191.7" width="50.5" height="103.3" fill="#4b5563"/>
<text class="label" x="426.5" y="319" text-anchor="middle">stage1</text>
<rect x="321.0" y="294.6" width="50.5" height="0.4" fill="#1f2933"/>
<rect x="374.5" y="262.3" width="50.5" height="32.7" fill="#6b7280"/>
<rect x="428.0" y="116.0" width="50.5" height="179.0" fill="#9ca3af"/>
<rect x="481.5" y="161.7" width="50.5" height="133.3" fill="#4b5563"/>
<text class="label" x="665.5" y="319" text-anchor="middle">stage2</text>
<rect x="560.0" y="294.6" width="50.5" height="0.4" fill="#1f2933"/>
<rect x="613.5" y="288.4" width="50.5" height="6.6" fill="#6b7280"/>
<rect x="667.0" y="239.4" width="50.5" height="55.6" fill="#9ca3af"/>
<rect x="720.5" y="215.3" width="50.5" height="79.7" fill="#4b5563"/>
<text class="label" x="904.5" y="319" text-anchor="middle">stage3</text>
<rect x="799.0" y="294.6" width="50.5" height="0.4" fill="#1f2933"/>
<rect x="852.5" y="291.6" width="50.5" height="3.4" fill="#6b7280"/>
<rect x="906.0" y="175.7" width="50.5" height="119.3" fill="#9ca3af"/>
<rect x="959.5" y="173.7" width="50.5" height="121.3" fill="#4b5563"/>
<text class="subtitle" x="32" y="351">Selected GPU count</text>
<line class="grid" x1="82" y1="540.0" x2="1010" y2="540.0"/>
<text class="tick" x="74" y="544.0" text-anchor="end">0.00</text>
<line class="grid" x1="82" y1="495.2" x2="1010" y2="495.2"/>
<text class="tick" x="74" y="499.2" text-anchor="end">4.00</text>
<line class="grid" x1="82" y1="450.5" x2="1010" y2="450.5"/>
<text class="tick" x="74" y="454.5" text-anchor="end">8.00</text>
<line class="grid" x1="82" y1="405.8" x2="1010" y2="405.8"/>
<text class="tick" x="74" y="409.8" text-anchor="end">12.0</text>
<line class="grid" x1="82" y1="361.0" x2="1010" y2="361.0"/>
<text class="tick" x="74" y="365.0" text-anchor="end">16.0</text>
<line class="axis" x1="82" y1="361" x2="82" y2="540"/>
<line class="axis" x1="82" y1="540" x2="1010" y2="540"/>
<text class="label" x="187.5" y="564" text-anchor="middle">stage0</text>
<rect x="82.0" y="472.9" width="50.5" height="67.1" fill="#1f2933"/>
<rect x="135.5" y="472.9" width="50.5" height="67.1" fill="#6b7280"/>
<rect x="189.0" y="450.5" width="50.5" height="89.5" fill="#9ca3af"/>
<rect x="242.5" y="450.5" width="50.5" height="89.5" fill="#4b5563"/>
<text class="label" x="426.5" y="564" text-anchor="middle">stage1</text>
<rect x="321.0" y="439.3" width="50.5" height="100.7" fill="#1f2933"/>
<rect x="374.5" y="439.3" width="50.5" height="100.7" fill="#6b7280"/>
<rect x="428.0" y="361.0" width="50.5" height="179.0" fill="#9ca3af"/>
<rect x="481.5" y="416.9" width="50.5" height="123.1" fill="#4b5563"/>
<text class="label" x="665.5" y="564" text-anchor="middle">stage2</text>
<rect x="560.0" y="472.9" width="50.5" height="67.1" fill="#1f2933"/>
<rect x="613.5" y="472.9" width="50.5" height="67.1" fill="#6b7280"/>
<rect x="667.0" y="450.5" width="50.5" height="89.5" fill="#9ca3af"/>
<rect x="720.5" y="461.7" width="50.5" height="78.3" fill="#4b5563"/>
<text class="label" x="904.5" y="564" text-anchor="middle">stage3</text>
<rect x="799.0" y="450.5" width="50.5" height="89.5" fill="#1f2933"/>
<rect x="852.5" y="450.5" width="50.5" height="89.5" fill="#6b7280"/>
<rect x="906.0" y="383.4" width="50.5" height="156.6" fill="#9ca3af"/>
<rect x="959.5" y="439.3" width="50.5" height="100.7" fill="#4b5563"/>
<text class="caption" x="32" y="616">First-stage placement is evaluated by computation time and the number of GPUs selected in each workload stage.</text>
</svg>