<svg xmlns="http://www.w3.org/2000/svg" width="1060" height="879" viewBox="0 0 1060 879">
<style>
text { font-family: Arial, Helvetica, sans-serif; fill: #111827; }
.title { font-size: 18px; font-weight: 700; }
.subtitle { font-size: 12px; fill: #4b5563; }
.axis { stroke: #374151; stroke-width: 1; }
.grid { stroke: #e5e7eb; stroke-width: 1; }
.label { font-size: 12px; }
.tick { font-size: 11px; fill: #4b5563; }
.value { font-size: 11px; font-weight: 600; }
.caption { font-size: 11px; fill: #4b5563; }
</style>
<rect width="100%" height="100%" fill="white"/>
<text class="title" x="32" y="34">Target materialization ablation by stage</text>
<rect x="32" y="52" width="14" height="10" fill="#1f2933"/>
<text class="tick" x="52" y="62">Current</text>
<rect x="150" y="52" width="14" height="10" fill="#9ca3af"/>
<text class="tick" x="170" y="62">No-preserve</text>
<rect x="268" y="52" width="14" height="10" fill="#6b7280"/>
<text class="tick" x="288" y="62">Beam</text>
<rect x="386" y="52" width="14" height="10" fill="#4b5563"/>
<text class="tick" x="406" y="62">Exact-template</text>
<text class="subtitle" x="32" y="106">Target-builder algorithm time</text>
<line class="grid" x1="82" y1="295.0" x2="1010" y2="295.0"/>
<text class="tick" x="74" y="299.0" text-anchor="end">0.00s</text>
<line class="grid" x1="82" y1="250.2" x2="1010" y2="250.2"/>
<text class="tick" x="74" y="254.2" text-anchor="end">6.48s</text>
<line class="grid" x1="82" y1="205.5" x2="1010" y2="205.5"/>
<text class="tick" x="74" y="209.5" text-anchor="end">13.0s</text>
<line class="grid" x1="82" y1="160.8" x2="1010" y2="160.8"/>
<text class="tick" x="74" y="164.8" text-anchor="end">19.4s</text>
<line class="grid" x1="82" y1="116.0" x2="1010" y2="116.0"/>
<text class="tick" x="74" y="120.0" text-anchor="end">25.9s</text>
<line class="axis" x1="82" y1="116" x2="82" y2="295"/>
<line class="axis" x1="82" y1="295" x2="1010" y2="295"/>
<text class="label" x="187.5" y="319" text-anchor="middle">stage0</text>
<rect x="82.0" y="293.8" width="50.5" height="1.2" fill="#1f2933"/>
<rect x="135.5" y="293.9" width="50.5" height="1.1" fill="#9ca3af"/>
<rect x="189.0" y="239.3" width="50.5" height="55.7" fill="#6b7280"/>
<rect x="242.5" y="295.0" width="50.5" height="0.0" fill="#4b5563"/>
<text class="label" x="426.5" y="319" text-anchor="middle">stage1</text>
<rect x="321.0" y="290.6" width="50.5" height="4.4" fill="#1f2933"/>
<rect x="374.5" y="285.1" width="50.5" height="9.9" fill="#9ca3af"/>
<rect x="428.0" y="116.0" width="50.5" height="179.0" fill="#6b7280"/>
<rect x="481.5" y="295.0" width="50.5" height="0.0" fill="#4b5563"/>
<text class="label" x="665.5" y="319" text-anchor="middle">stage2</text>
<rect x="560.0" y="292.2" width="50.5" height="2.8" fill="#1f2933"/>
<rect x="613.5" y="281.8" width="50.5" height="13.2" fill="#9ca3af"/>
<rect x="667.0" y="244.4" width="50.5" height="50.6" fill="#6b7280"/>
<rect x="720.5" y="295.0" width="50.5" height="0.0" fill="#4b5563"/>
<text class="label" x="904.5" y="319" text-anchor="middle">stage3</text>
<rect x="799.0" y="291.1" width="50.5" height="3.9" fill="#1f2933"/>
<rect x="852.5" y="285.5" width="50.5" height="9.5" fill="#9ca3af"/>
<rect x="906.0" y="238.2" width="50.5" height="56.8" fill="#6b7280"/>
<rect x="959.5" y="295.0" width="50.5" height="0.0" fill="#4b5563"/>
<text class="subtitle" x="32" y="351">Estimated reconfiguration time</text>
<line class="grid" x1="82" y1="540.0" x2="1010" y2="540.0"/>
<text class="tick" x="74" y="544.0" text-anchor="end">0.00s</text>
<line class="grid" x1="82" y1="495.2" x2="1010" y2="495.2"/>
<text class="tick" x="74" y="499.2" text-anchor="end">193s</text>
<line class="grid" x1="82" y1="450.5" x2="1010" y2="450.5"/>
<text class="tick" x="74" y="454.5" text-anchor="end">386s</text>
<line class="grid" x1="82" y1="405.8" x2="1010" y2="405.8"/>
<text class="tick" x="74" y="409.8" text-anchor="end">580s</text>
<line class="grid" x1="82" y1="361.0" x2="1010" y2="361.0"/>
<text class="tick" x="74" y="365.0" text-anchor="end">773s</text>
<line class="axis" x1="82" y1="361" x2="82" y2="540"/>
<line class="axis" x1="82" y1="540" x2="1010" y2="540"/>
<text class="label" x="187.5" y="564" text-anchor="middle">stage0</text>
<rect x="82.0" y="361.0" width="50.5" height="179.0" fill="#1f2933"/>
<rect x="135.5" y="361.0" width="50.5" height="179.0" fill="#9ca3af"/>
<rect x="189.0" y="361.0" width="50.5" height="179.0" fill="#6b7280"/>
<rect x="242.5" y="361.0" width="50.5" height="179.0" fill="#4b5563"/>
<text class="label" x="426.5" y="564" text-anchor="middle">stage1</text>
<rect x="321.0" y="460.9" width="50.5" height="79.1" fill="#1f2933"/>
<rect x="374.5" y="365.3" width="50.5" height="174.7" fill="#9ca3af"/>
<rect x="428.0" y="460.0" width="50.5" height="80.0" fill="#6b7280"/>
<rect x="481.5" y="371.3" width="50.5" height="168.7" fill="#4b5563"/>
<text class="label" x="665.5" y="564" text-anchor="middle">stage2</text>
<rect x="560.0" y="500.2" width="50.5" height="39.8" fill="#1f2933"/>
<rect x="613.5" y="409.7" width="50.5" height="130.3" fill="#9ca3af"/>
<rect x="667.0" y="497.0" width="50.5" height="43.0" fill="#6b7280"/>
<rect x="720.5" y="441.3" width="50.5" height="98.7" fill="#4b5563"/>
<text class="label" x="904.5" y="564" text-anchor="middle">stage3</text>
<rect x="799.0" y="458.0" width="50.5" height="82.0" fill="#1f2933"/>
<rect x="852.5" y="397.1" width="50.5" height="142.9" fill="#9ca3af"/>
<rect x="906.0" y="456.8" width="50.5" height="83.2" fill="#6b7280"/>
<rect x="959.5" y="455.9" width="50.5" height="84.1" fill="#4b5563"/>
<text class="subtitle" x="32" y="596">Executed fine-grained actions</text>
<line class="grid" x1="82" y1="785.0" x2="1010" y2="785.0"/>
<text class="tick" x="74" y="789.0" text-anchor="end">0.00</text>
<line class="grid" x1="82" y1="740.2" x2="1010" y2="740.2"/>
<text class="tick" x="74" y="744.2" text-anchor="end">18.2</text>
<line class="grid" x1="82" y1="695.5" x2="1010" y2="695.5"/>
<text class="tick" x="74" y="699.5" text-anchor="end">36.5</text>
<line class="grid" x1="82" y1="650.8" x2="1010" y2="650.8"/>
<text class="tick" x="74" y="654.8" text-anchor="end">54.8</text>
<line class="grid" x1="82" y1="606.0" x2="1010" y2="606.0"/>
<text class="tick" x="74" y="610.0" text-anchor="end">73.0</text>
<line class="axis" x1="82" y1="606" x2="82" y2="785"/>
<line class="axis" x1="82" y1="785" x2="1010" y2="785"/>
<text class="label" x="187.5" y="809" text-anchor="middle">stage0</text>
<rect x="82.0" y="696.7" width="50.5" height="88.3" fill="#1f2933"/>
<rect x="135.5" y="696.7" width="50.5" height="88.3" fill="#9ca3af"/>
<rect x="189.0" y="696.7" width="50.5" height="88.3" fill="#6b7280"/>
<rect x="242.5" y="696.7" width="50.5" height="88.3" fill="#4b5563"/>
<text class="label" x="426.5" y="809" text-anchor="middle">stage1</text>
<rect x="321.0" y="750.7" width="50.5" height="34.3" fill="#1f2933"/>
<rect x="374.5" y="606.0" width="50.5" height="179.0" fill="#9ca3af"/>
<rect x="428.0" y="740.9" width="50.5" height="44.1" fill="#6b7280"/>
<rect x="481.5" y="669.8" width="50.5" height="115.2" fill="#4b5563"/>
<text class="label" x="665.5" y="809" text-anchor="middle">stage2</text>
<rect x="560.0" y="711.4" width="50.5" height="73.6" fill="#1f2933"/>
<rect x="613.5" y="625.6" width="50.5" height="159.4" fill="#9ca3af"/>
<rect x="667.0" y="677.1" width="50.5" height="107.9" fill="#6b7280"/>
<rect x="720.5" y="674.7" width="50.5" height="110.3" fill="#4b5563"/>
<text class="label" x="904.5" y="809" text-anchor="middle">stage3</text>
<rect x="799.0" y="743.3" width="50.5" height="41.7" fill="#1f2933"/>
<rect x="852.5" y="657.5" width="50.5" height="127.5" fill="#9ca3af"/>
<rect x="906.0" y="731.1" width="50.5" height="53.9" fill="#6b7280"/>
<rect x="959.5" y="716.3" width="50.5" height="68.7" fill="#4b5563"/>
<text class="caption" x="32" y="861">Second-stage target materialization is compared by build time and the downstream transition cost it induces.</text>
</svg>