<svg xmlns="http://www.w3.org/2000/svg" width="1060" height="879" viewBox="0 0 1060 879">
<style>
text { font-family: Arial, Helvetica, sans-serif; fill: #111827; }
.title { font-size: 18px; font-weight: 700; }
.subtitle { font-size: 12px; fill: #4b5563; }
.axis { stroke: #374151; stroke-width: 1; }
.grid { stroke: #e5e7eb; stroke-width: 1; }
.label { font-size: 12px; }
.tick { font-size: 11px; fill: #4b5563; }
.value { font-size: 11px; font-weight: 600; }
.caption { font-size: 11px; fill: #4b5563; }
</style>
<rect width="100%" height="100%" fill="white"/>
<text class="title" x="32" y="34">Transition planner ablation by stage</text>
<rect x="32" y="52" width="14" height="10" fill="#1f2933"/>
<text class="tick" x="52" y="62">Current</text>
<rect x="150" y="52" width="14" height="10" fill="#9ca3af"/>
<text class="tick" x="170" y="62">Serial</text>
<rect x="268" y="52" width="14" height="10" fill="#6b7280"/>
<text class="tick" x="288" y="62">Drain-aware</text>
<rect x="386" y="52" width="14" height="10" fill="#4b5563"/>
<text class="tick" x="406" y="62">Full-plan</text>
<text class="subtitle" x="32" y="106">Transition-planner algorithm time</text>
<line class="grid" x1="82" y1="295.0" x2="1010" y2="295.0"/>
<text class="tick" x="74" y="299.0" text-anchor="end">0.00s</text>
<line class="grid" x1="82" y1="250.2" x2="1010" y2="250.2"/>
<text class="tick" x="74" y="254.2" text-anchor="end">0.25s</text>
<line class="grid" x1="82" y1="205.5" x2="1010" y2="205.5"/>
<text class="tick" x="74" y="209.5" text-anchor="end">0.50s</text>
<line class="grid" x1="82" y1="160.8" x2="1010" y2="160.8"/>
<text class="tick" x="74" y="164.8" text-anchor="end">0.75s</text>
<line class="grid" x1="82" y1="116.0" x2="1010" y2="116.0"/>
<text class="tick" x="74" y="120.0" text-anchor="end">1.00s</text>
<line class="axis" x1="82" y1="116" x2="82" y2="295"/>
<line class="axis" x1="82" y1="295" x2="1010" y2="295"/>
<text class="label" x="187.5" y="319" text-anchor="middle">stage0</text>
<rect x="82.0" y="294.5" width="50.5" height="0.5" fill="#1f2933"/>
<rect x="135.5" y="290.9" width="50.5" height="4.1" fill="#9ca3af"/>
<rect x="189.0" y="294.6" width="50.5" height="0.4" fill="#6b7280"/>
<rect x="242.5" y="294.6" width="50.5" height="0.4" fill="#4b5563"/>
<text class="label" x="426.5" y="319" text-anchor="middle">stage1</text>
<rect x="321.0" y="293.5" width="50.5" height="1.5" fill="#1f2933"/>
<rect x="374.5" y="292.6" width="50.5" height="2.4" fill="#9ca3af"/>
<rect x="428.0" y="293.6" width="50.5" height="1.4" fill="#6b7280"/>
<rect x="481.5" y="293.2" width="50.5" height="1.8" fill="#4b5563"/>
<text class="label" x="665.5" y="319" text-anchor="middle">stage2</text>
<rect x="560.0" y="292.3" width="50.5" height="2.7" fill="#1f2933"/>
<rect x="613.5" y="288.2" width="50.5" height="6.8" fill="#9ca3af"/>
<rect x="667.0" y="292.2" width="50.5" height="2.8" fill="#6b7280"/>
<rect x="720.5" y="292.9" width="50.5" height="2.1" fill="#4b5563"/>
<text class="label" x="904.5" y="319" text-anchor="middle">stage3</text>
<rect x="799.0" y="293.3" width="50.5" height="1.7" fill="#1f2933"/>
<rect x="852.5" y="292.5" width="50.5" height="2.5" fill="#9ca3af"/>
<rect x="906.0" y="293.5" width="50.5" height="1.5" fill="#6b7280"/>
<rect x="959.5" y="293.8" width="50.5" height="1.2" fill="#4b5563"/>
<text class="subtitle" x="32" y="351">Peak active physical GPUs</text>
<line class="grid" x1="82" y1="540.0" x2="1010" y2="540.0"/>
<text class="tick" x="74" y="544.0" text-anchor="end">0.00</text>
<line class="grid" x1="82" y1="495.2" x2="1010" y2="495.2"/>
<text class="tick" x="74" y="499.2" text-anchor="end">2.50</text>
<line class="grid" x1="82" y1="450.5" x2="1010" y2="450.5"/>
<text class="tick" x="74" y="454.5" text-anchor="end">5.00</text>
<line class="grid" x1="82" y1="405.8" x2="1010" y2="405.8"/>
<text class="tick" x="74" y="409.8" text-anchor="end">7.50</text>
<line class="grid" x1="82" y1="361.0" x2="1010" y2="361.0"/>
<text class="tick" x="74" y="365.0" text-anchor="end">10.0</text>
<line class="axis" x1="82" y1="361" x2="82" y2="540"/>
<line class="axis" x1="82" y1="540" x2="1010" y2="540"/>
<text class="label" x="187.5" y="564" text-anchor="middle">stage0</text>
<rect x="82.0" y="378.9" width="50.5" height="161.1" fill="#1f2933"/>
<rect x="135.5" y="378.9" width="50.5" height="161.1" fill="#9ca3af"/>
<rect x="189.0" y="378.9" width="50.5" height="161.1" fill="#6b7280"/>
<rect x="242.5" y="378.9" width="50.5" height="161.1" fill="#4b5563"/>
<text class="label" x="426.5" y="564" text-anchor="middle">stage1</text>
<rect x="321.0" y="378.9" width="50.5" height="161.1" fill="#1f2933"/>
<rect x="374.5" y="378.9" width="50.5" height="161.1" fill="#9ca3af"/>
<rect x="428.0" y="378.9" width="50.5" height="161.1" fill="#6b7280"/>
<rect x="481.5" y="378.9" width="50.5" height="161.1" fill="#4b5563"/>
<text class="label" x="665.5" y="564" text-anchor="middle">stage2</text>
<rect x="560.0" y="361.0" width="50.5" height="179.0" fill="#1f2933"/>
<rect x="613.5" y="361.0" width="50.5" height="179.0" fill="#9ca3af"/>
<rect x="667.0" y="361.0" width="50.5" height="179.0" fill="#6b7280"/>
<rect x="720.5" y="361.0" width="50.5" height="179.0" fill="#4b5563"/>
<text class="label" x="904.5" y="564" text-anchor="middle">stage3</text>
<rect x="799.0" y="396.8" width="50.5" height="143.2" fill="#1f2933"/>
<rect x="852.5" y="396.8" width="50.5" height="143.2" fill="#9ca3af"/>
<rect x="906.0" y="396.8" width="50.5" height="143.2" fill="#6b7280"/>
<rect x="959.5" y="396.8" width="50.5" height="143.2" fill="#4b5563"/>
<text class="subtitle" x="32" y="596">Estimated reconfiguration time</text>
<line class="grid" x1="82" y1="785.0" x2="1010" y2="785.0"/>
<text class="tick" x="74" y="789.0" text-anchor="end">0.00s</text>
<line class="grid" x1="82" y1="740.2" x2="1010" y2="740.2"/>
<text class="tick" x="74" y="744.2" text-anchor="end">193s</text>
<line class="grid" x1="82" y1="695.5" x2="1010" y2="695.5"/>
<text class="tick" x="74" y="699.5" text-anchor="end">386s</text>
<line class="grid" x1="82" y1="650.8" x2="1010" y2="650.8"/>
<text class="tick" x="74" y="654.8" text-anchor="end">580s</text>
<line class="grid" x1="82" y1="606.0" x2="1010" y2="606.0"/>
<text class="tick" x="74" y="610.0" text-anchor="end">773s</text>
<line class="axis" x1="82" y1="606" x2="82" y2="785"/>
<line class="axis" x1="82" y1="785" x2="1010" y2="785"/>
<text class="label" x="187.5" y="809" text-anchor="middle">stage0</text>
<rect x="82.0" y="606.0" width="50.5" height="179.0" fill="#1f2933"/>
<rect x="135.5" y="606.0" width="50.5" height="179.0" fill="#9ca3af"/>
<rect x="189.0" y="606.0" width="50.5" height="179.0" fill="#6b7280"/>
<rect x="242.5" y="606.0" width="50.5" height="179.0" fill="#4b5563"/>
<text class="label" x="426.5" y="809" text-anchor="middle">stage1</text>
<rect x="321.0" y="705.9" width="50.5" height="79.1" fill="#1f2933"/>
<rect x="374.5" y="705.9" width="50.5" height="79.1" fill="#9ca3af"/>
<rect x="428.0" y="705.9" width="50.5" height="79.1" fill="#6b7280"/>
<rect x="481.5" y="705.9" width="50.5" height="79.1" fill="#4b5563"/>
<text class="label" x="665.5" y="809" text-anchor="middle">stage2</text>
<rect x="560.0" y="745.2" width="50.5" height="39.8" fill="#1f2933"/>
<rect x="613.5" y="745.2" width="50.5" height="39.8" fill="#9ca3af"/>
<rect x="667.0" y="745.2" width="50.5" height="39.8" fill="#6b7280"/>
<rect x="720.5" y="745.2" width="50.5" height="39.8" fill="#4b5563"/>
<text class="label" x="904.5" y="809" text-anchor="middle">stage3</text>
<rect x="799.0" y="703.0" width="50.5" height="82.0" fill="#1f2933"/>
<rect x="852.5" y="703.0" width="50.5" height="82.0" fill="#9ca3af"/>
<rect x="906.0" y="703.0" width="50.5" height="82.0" fill="#6b7280"/>
<rect x="959.5" y="703.0" width="50.5" height="82.0" fill="#4b5563"/>
<text class="caption" x="32" y="861">Third-stage transition planners are compared by scheduling computation, peak GPU footprint, and estimated hardware action cost.</text>
</svg>