<svg xmlns="http://www.w3.org/2000/svg" width="1120" height="260" viewBox="0 0 1120 260">
<defs><marker id="arrow" markerWidth="10" markerHeight="8" refX="9" refY="4" orient="auto"><path d="M0,0 L10,4 L0,8 z" fill="#333"/></marker></defs>
<rect width="100%" height="100%" fill="#fbfbf8"/>
<rect x="30" y="82" width="112" height="76" rx="6" fill="#ffffff" stroke="#333"/>
<text x="86" y="114" text-anchor="middle" font-family="Arial" font-size="13" font-weight="700" fill="#222">ArrivalSnapshot</text>
<line x1="142" y1="120" x2="165" y2="120" stroke="#333" stroke-width="2" marker-end="url(#arrow)"/>
<rect x="165" y="82" width="112" height="76" rx="6" fill="#ffffff" stroke="#333"/>
<text x="221" y="114" text-anchor="middle" font-family="Arial" font-size="13" font-weight="700" fill="#222">Planner
final optimizer</text>
<line x1="277" y1="120" x2="300" y2="120" stroke="#333" stroke-width="2" marker-end="url(#arrow)"/>
<rect x="300" y="82" width="112" height="76" rx="6" fill="#ffffff" stroke="#333"/>
<text x="356" y="114" text-anchor="middle" font-family="Arial" font-size="13" font-weight="700" fill="#222">MigActionPlan</text>
<line x1="412" y1="120" x2="435" y2="120" stroke="#333" stroke-width="2" marker-end="url(#arrow)"/>
<rect x="435" y="82" width="112" height="76" rx="6" fill="#ffffff" stroke="#333"/>
<text x="491" y="114" text-anchor="middle" font-family="Arial" font-size="13" font-weight="700" fill="#222">clear ampere GPUs</text>
<line x1="547" y1="120" x2="570" y2="120" stroke="#333" stroke-width="2" marker-end="url(#arrow)"/>
<rect x="570" y="82" width="112" height="76" rx="6" fill="#ffffff" stroke="#333"/>
<text x="626" y="114" text-anchor="middle" font-family="Arial" font-size="13" font-weight="700" fill="#222">create exact MIG slots</text>
<line x1="682" y1="120" x2="705" y2="120" stroke="#333" stroke-width="2" marker-end="url(#arrow)"/>
<rect x="705" y="82" width="112" height="76" rx="6" fill="#ffffff" stroke="#333"/>
<text x="761" y="114" text-anchor="middle" font-family="Arial" font-size="13" font-weight="700" fill="#222">create runtime Pods</text>
<line x1="817" y1="120" x2="840" y2="120" stroke="#333" stroke-width="2" marker-end="url(#arrow)"/>
<rect x="840" y="82" width="112" height="76" rx="6" fill="#ffffff" stroke="#333"/>
<text x="896" y="114" text-anchor="middle" font-family="Arial" font-size="13" font-weight="700" fill="#222">sync router routes</text>
<line x1="952" y1="120" x2="975" y2="120" stroke="#333" stroke-width="2" marker-end="url(#arrow)"/>
<rect x="975" y="82" width="112" height="76" rx="6" fill="#ffffff" stroke="#333"/>
<text x="1031" y="114" text-anchor="middle" font-family="Arial" font-size="13" font-weight="700" fill="#222">verify UUID/process</text>
</svg>